#!OML:ASF F:\VICON\USERDATA\INSTALL\rory3\rory3.ASF
:FULLY-SPECIFIED
:DEGREES
179
root 4.71534 15.6202 -4.09173 0.418063 79.1596 -7.62598
lowerback -10.9305 -5.57895 -3.00491
upperback -11.791 -6.16845 10.2846
thorax -5.019 -2.15924 12.4249
lowerneck -4.08952 -13.8969 -15.0863
upperneck 38.8007 -17.0531 -0.534816
head 15.8589 -8.99849 -0.192911
rclavicle -4.85035e-014 -6.99722e-014
rhumerus 81.0696 -18.6851 -6.63718
rradius 48.8861
rwrist 28.3331
rhand 17.5466 -10.2161
rfingers 7.12502
rthumb 42.2431 -34.7242
lclavicle -4.85035e-014 -6.99722e-014
lhumerus 93.6691 25.0182 22.538
lradius 46.7908
lwrist -18.2932
lhand 4.90877 10.7681
lfingers 7.12502
lthumb 30.2829 38.3037
rfemur -50.689 -18.7096 34.9881
rtibia 54.9321
rfoot -36.3187 -35.1503
rtoes 31.1641
lfemur -30.8092 26.6757 -30.3202
ltibia 74.1049
lfoot -22.9385 26.8154
ltoes 6.47575
180
root 4.74683 15.5943 -4.0426 0.0371567 79.1304 -8.07144
lowerback -11.12 -5.39984 -2.91881
upperback -11.7206 -5.94404 10.1389
thorax -4.91012 -2.06437 12.2076
lowerneck -4.1475 -13.9629 -14.6543
upperneck 38.7236 -17.1894 -0.614178
head 15.7701 -9.00759 -0.304026
rclavicle 1.27222e-014 -7.95139e-014
rhumerus 80.8508 -18.7398 -7.07034
rradius 48.8646
rwrist 28.5373
rhand 17.741 -9.68164
rfingers 7.12502
rthumb 42.4251 -34.1276
lclavicle 1.27222e-014 -7.95139e-014
lhumerus 93.5558 25.1483 22.8132
lradius 47.0456
lwrist -17.9286
lhand 6.44919 10.2717
lfingers 7.12502
lthumb 31.7512 37.5272
rfemur -50.7863 -18.3614 35.1076
rtibia 55.3427
rfoot -36.8217 -35.2591
rtoes 30.4967
lfemur -31.9604 26.4313 -30.6279
ltibia 74.8295
lfoot -21.8292 23.772
ltoes 1.32011
181
root 4.77397 15.5699 -4.00411 0.619265 79.1034 -7.61556
lowerback -11.2783 -5.21486 -2.83384
upperback -11.759 -5.70458 9.87563
thorax -4.95052 -1.95445 11.8702
lowerneck -3.91448 -14.2279 -14.4446
upperneck 38.6074 -17.6358 -0.695649
head 15.6565 -9.18439 -0.419032
rclavicle 1.00187e-013 -7.63333e-014
rhumerus 80.3868 -18.642 -7.18604
rradius 48.8921
rwrist 28.6513
rhand 18.3485 -9.42636
rfingers 7.12502
rthumb 42.9936 -33.6746
lclavicle 1.00187e-013 -7.63333e-014
lhumerus 93.1446 25.1708 22.4992
lradius 47.3974
lwrist -16.6769
lhand 7.17572 10.215
lfingers 7.12502
lthumb 32.4429 37.3312
rfemur -50.9703 -17.7738 34.9361
rtibia 55.7594
rfoot -37.5873 -35.3818
rtoes 30.4508
lfemur -33.0329 25.8058 -31.2123
ltibia 75.3739
lfoot -21.2819 20.9077
ltoes -3.21336
182
root 4.79688 15.5476 -3.96599 0.978934 79.0543 -7.29007
lowerback -11.3728 -5.06785 -2.77995
upperback -11.7179 -5.52416 9.67514
thorax -4.91378 -1.87962 11.6165
lowerneck -4.04895 -14.349 -13.9585
upperneck 38.7165 -17.7579 -1.05339
head 15.6337 -9.21187 -0.660883
rclavicle 7.15625e-015 2.54444e-014
rhumerus 79.9652 -18.5859 -7.08358
rradius 49.054
rwrist 28.7265
rhand 18.0618 -9.29866
rfingers 7.12502
rthumb 42.7255 -33.6409
lclavicle 7.15625e-015 2.54444e-014
lhumerus 92.9256 24.9922 22.3439
lradius 47.539
lwrist -15.2977
lhand 7.63866 10.5009
lfingers 7.12502
lthumb 32.8834 37.5256
rfemur -51.0199 -17.1587 34.7682
rtibia 56.1381
rfoot -38.6882 -35.3247
rtoes 31.4582
lfemur -33.8827 24.9635 -31.6201
ltibia 75.8022
lfoot -21.2196 17.7168
ltoes -4.70607
183
root 4.81744 15.5241 -3.92749 -0.605171 79.0671 -8.84752
lowerback -11.4465 -4.99558 -2.47966
upperback -11.5755 -5.46163 9.64856
thorax -4.75472 -1.88317 11.3963
lowerneck -4.11605 -14.4402 -13.551
upperneck 38.6079 -17.8594 -1.32257
head 15.5059 -9.23942 -0.835464
rclavicle -8.50798e-014 3.49861e-014
rhumerus 79.5586 -18.5336 -7.03525
rradius 49.5291
rwrist 28.8931
rhand 17.764 -9.04542
rfingers 7.12502
rthumb 42.4467 -33.484
lclavicle -8.50798e-014 3.49861e-014
lhumerus 92.6573 24.9412 22.2049
lradius 47.6158
lwrist -13.7023
lhand 7.86731 10.9273
lfingers 7.12502
lthumb 33.1009 37.9061
rfemur -50.9488 -17.0728 35.1743
rtibia 56.4093
rfoot -39.005 -35.2598
rtoes 31.6594
lfemur -34.6399 24.2861 -31.4932
ltibia 76.2016
lfoot -20.2807 14.869
ltoes -8.45906
184
root 4.83529 15.5051 -3.89434 -1.63499 79.1833 -9.86327
lowerback -11.4862 -5.01073 -2.14904
upperback -11.4953 -5.51698 9.54262
thorax -4.6662 -1.94704 11.0614
lowerneck -3.95593 -14.5573 -13.291
upperneck 38.441 -18.0446 -1.48301
head 15.341 -9.3155 -0.938831
rclavicle -4.69132e-014 4.77083e-014
rhumerus 79.051 -18.2533 -7.03279
rradius 50.171
rwrist 29.1951
rhand 17.8976 -9.0213
rfingers 7.12502
rthumb 42.5717 -33.4168
lclavicle -4.69132e-014 4.77083e-014
lhumerus 92.3326 24.9978 21.9046
lradius 47.6247
lwrist -11.6159
lhand 8.10575 11.1497
lfingers 7.12502
lthumb 33.3276 38.0803
rfemur -50.9064 -17.0062 35.4088
rtibia 56.6062
rfoot -39.2739 -35.2299
rtoes 31.8584
lfemur -35.3563 23.583 -31.5259
ltibia 76.4234
lfoot -18.6508 12.8379
ltoes -15.9755
185
root 4.84833 15.5017 -3.86667 -3.17815 79.2256 -11.3649
lowerback -11.4127 -5.02269 -1.80043
upperback -11.4233 -5.55932 9.57528
thorax -4.64393 -1.99404 10.8875
lowerneck -3.81918 -14.6131 -13.4552
upperneck 38.3804 -18.1419 -1.41315
head 15.3219 -9.37438 -0.893791
rclavicle 3.10104e-014 3.18055e-014
rhumerus 78.5716 -17.9244 -6.6111
rradius 50.9092
rwrist 29.4299
rhand 18.2287 -9.2901
rfingers 7.12502
rthumb 42.8815 -33.5778
lclavicle 3.10104e-014 3.18055e-014
lhumerus 91.7317 25.1179 21.6619
lradius 47.8742
lwrist -9.3787
lhand 8.22285 11.2453
lfingers 7.12502
lthumb 33.4389 38.1519
rfemur -50.6987 -16.401 35.4892
rtibia 56.6731
rfoot -39.9953 -35.4312
rtoes 32.4262
lfemur -35.8881 22.5551 -31.349
ltibia 76.4654
lfoot -17.6252 10.3876
ltoes -20.8822
